<svg xmlns="http://www.w3.org/2000/svg" width="150.128" height="41.943" viewBox="0 0 150.128 41.943">
  <g id="Logo" transform="translate(-150.5 -43.98)">
    <g id="Group_159313" data-name="Group 159313">
      <path id="Path_Taqtics" data-name="Path Taqtics" d="M12.9-4.433,14.2-.992A8.835,8.835,0,0,1,9.207.4,5.556,5.556,0,0,1,4.8-1.286,7.321,7.321,0,0,1,3.317-6.262v-6.975H.558V-16.9h2.79v-5.983h4.34V-16.9h5.58v3.658H7.688v6.7q0,2.976,2.387,2.976A5.75,5.75,0,0,0,12.9-4.433ZM27.032-14.88V-16.9h4.154V0H27.032V-1.953A7.035,7.035,0,0,1,21.638.4a7.838,7.838,0,0,1-6.014-2.542,9.031,9.031,0,0,1-2.356-6.386,8.706,8.706,0,0,1,2.387-6.293,7.91,7.91,0,0,1,5.983-2.511A7.037,7.037,0,0,1,27.032-14.88Zm.062,6.417A4.868,4.868,0,0,0,25.73-11.9a4.425,4.425,0,0,0-3.379-1.426,4.461,4.461,0,0,0-3.41,1.426,4.923,4.923,0,0,0-1.3,3.441,4.9,4.9,0,0,0,1.333,3.472,4.425,4.425,0,0,0,3.379,1.426A4.425,4.425,0,0,0,25.73-4.991,4.906,4.906,0,0,0,27.094-8.463Zm18.972-6.355V-16.9h4.34V6.944H46.035V-2.015A6.828,6.828,0,0,1,40.7.4,7.819,7.819,0,0,1,34.72-2.17a8.908,8.908,0,0,1-2.356-6.293,8.908,8.908,0,0,1,2.356-6.293A7.819,7.819,0,0,1,40.7-17.329,6.813,6.813,0,0,1,46.066-14.818ZM41.478-3.6a4.374,4.374,0,0,0,3.348-1.4,4.853,4.853,0,0,0,1.3-3.441,4.853,4.853,0,0,0-1.3-3.441,4.374,4.374,0,0,0-3.348-1.4,4.411,4.411,0,0,0-3.379,1.4,4.853,4.853,0,0,0-1.3,3.441,4.853,4.853,0,0,0,1.3,3.441A4.411,4.411,0,0,0,41.478-3.6Zm21.948-.837,1.3,3.441A8.835,8.835,0,0,1,59.737.4a5.556,5.556,0,0,1-4.4-1.689,7.321,7.321,0,0,1-1.488-4.976v-6.975H51.088V-16.9h2.79v-5.983h4.34V-16.9H63.8v3.658h-5.58v6.7q0,2.976,2.387,2.976A5.75,5.75,0,0,0,63.426-4.433ZM69.9-21.483a2.61,2.61,0,0,1-.775,1.922,2.61,2.61,0,0,1-1.922.775,2.61,2.61,0,0,1-1.922-.775,2.61,2.61,0,0,1-.775-1.922,2.508,2.508,0,0,1,.775-1.891,2.61,2.61,0,0,1,1.922-.775,2.61,2.61,0,0,1,1.922.775A2.508,2.508,0,0,1,69.9-21.483ZM69.378-16.9V0H65.007V-16.9ZM79.484.372a8.854,8.854,0,0,1-6.448-2.48,8.484,8.484,0,0,1-2.511-6.355,8.43,8.43,0,0,1,2.542-6.355,8.979,8.979,0,0,1,6.541-2.511,9.2,9.2,0,0,1,4.728,1.24,7.594,7.594,0,0,1,3.146,3.472l-3.5,1.922a4.8,4.8,0,0,0-4.309-2.573,4.547,4.547,0,0,0-3.441,1.4,4.627,4.627,0,0,0-1.364,3.41A4.762,4.762,0,0,0,76.2-4.991a4.589,4.589,0,0,0,3.379,1.364,4.93,4.93,0,0,0,2.542-.713,4.411,4.411,0,0,0,1.767-1.829L87.42-4.092A8.034,8.034,0,0,1,84.212-.837,9.385,9.385,0,0,1,79.484.372ZM93.9.434a8.42,8.42,0,0,1-6.975-3.255L89.249-5.58A6.7,6.7,0,0,0,91.4-3.859a5.546,5.546,0,0,0,2.526.635,2.829,2.829,0,0,0,1.659-.465,1.39,1.39,0,0,0,.667-1.178q0-.9-1.209-1.457-.372-.155-2.015-.775a19.013,19.013,0,0,1-2.17-.9,4.589,4.589,0,0,1-2.914-4.371,4.579,4.579,0,0,1,1.736-3.658,6.924,6.924,0,0,1,4.588-1.426,7.859,7.859,0,0,1,5.921,2.418l-2.17,2.821a5.529,5.529,0,0,0-3.875-1.674,2.193,2.193,0,0,0-1.38.418,1.24,1.24,0,0,0-.542,1.008q0,1.054,1.488,1.55,3.317,1.24,4.061,1.643a4.649,4.649,0,0,1,2.852,4.278,4.816,4.816,0,0,1-1.86,3.906A7.3,7.3,0,0,1,93.9.434Z" transform="translate(200.002 74.918)" fill="#333"/>
      <g id="Logo-2" data-name="Logo" transform="translate(151.771 151.523)">
        <path id="Union_483" data-name="Union 483" d="M-17422.018,17280.766c-4.76-.5-20.023-16.828-10.719-9.734,9.922,7.566,17.813-12.707,21.043-12.725s-.039,8.92-1.646,12.629c-1.432,3.311-4.119,8.41-6.883,9.506a4.17,4.17,0,0,1-1.129.318c-.162.012-.252.023-.373.023A2.662,2.662,0,0,1-17422.018,17280.766Zm-18.693-18.105c-2.486-2.615-6.129-7.08-6.059-10.049a4.181,4.181,0,0,1,.148-1.17,3.064,3.064,0,0,1,.254-.613c2.316-4.186,23.316-11.857,13.145-6.064-10.838,6.178,4.742,21.359,3.494,24.346a1.163,1.163,0,0,1-1.164.764C-17433.334,17269.873-17438.422,17265.063-17440.711,17262.66Zm30.8-6.434c-.25-8.437-9.812-8.131-16.609-7.828-3.248.148-5.863.293-6.523-.512-2.049-2.506,6.953-5.584,10.846-6.674,3.477-.967,9.133-2.084,11.721-.631a4.077,4.077,0,0,1,.959.68,2.74,2.74,0,0,1,.422.512c2.076,3.191.553,17.828-.332,17.83C-17409.656,17259.605-17409.842,17258.629-17409.91,17256.227Z" transform="translate(17445.998 -17346.883)" fill="#004053" stroke="rgba(0,0,0,0)" stroke-width="1"/>
        <path id="Path_1523" data-name="Path 1523" d="M82.26,60.819c1.194,2.07-6.2,11.484-8.877,11.3S64.757,61.56,66.216,59.693,81.066,58.748,82.26,60.819Z" transform="translate(-52.631 -153.386)" fill="#0066bf" fill-rule="evenodd"/>
      </g>
    </g>
  </g>
</svg>
